# xmcd
#
# Track frame offsets: 
#        150
#        15132
#        27295
#        42142
#        61392
#        83267
#        111085
#        126355
#        142785
#        156862
#        176410
#        189052
#        203905
#        216082
#        230895
#        243112
#        264285
#        277207
#        292372
#        309802
#
# Disc length: 4304 seconds
#
# Revision: 18
# Processed by: cddbd v1.5.2PL0 Copyright (c) Steve Scherf et al.
# Submitted via: ExactAudioCopy v0.95a5
#
DISCID=0b10ce14
DTITLE=Various Artist - k2-Fino Bossa Nova
DYEAR=2001
DGENRE=Other
TTITLE0=Tamba Trio - Mas Que Nada
TTITLE1=Joao Donato - Samba De Orfeu
TTITLE2=Maria Creuza - Garota De Ipanema
TTITLE3=Stan Getz and Joao Gilberto - Corcovado
TTITLE4=Sebastiao Tapajos - Wave
TTITLE5=Stan Getz and Charlie Byrd - Samba De Uma Nota So
TTITLE6=Walter Santos - Samba Pro Pedrinho
TTITLE7=Quarteto Em Cy - A Felicidade
TTITLE8=Joao Donato - Manha De Carnabal
TTITLE9=Antonio Carlos Jobim - Chega De Saudade
TTITLE10=Johnny Alf - O Barquinho
TTITLE11=Lisa Ono - Desafinado
TTITLE12=Maria Creuza - Agua De Beber
TTITLE13=Milton Banana Trio - Samba De Orly
TTITLE14=Tamba Trio - 3 Horas Da Manha
TTITLE15=Raul De Souza - A Vontade Mesmo
TTITLE16=Miucha and Antonio Carlos Jobim - Samba Do Aviao
TTITLE17=Stan Getz and Luiz Bonfa - Insensatez
TTITLE18=Gal Costa - Aquele Frevo Axe
TTITLE19=Sergio Mendes and Brasil '66 - Tristeza
EXTD=
EXTT0=
EXTT1=
EXTT2=
EXTT3=
EXTT4=
EXTT5=
EXTT6=
EXTT7=
EXTT8=
EXTT9=
EXTT10=
EXTT11=
EXTT12=
EXTT13=
EXTT14=
EXTT15=
EXTT16=
EXTT17=
EXTT18=
EXTT19=
PLAYORDER=
